<svg xmlns="http://www.w3.org/2000/svg" viewBox="0 0 400 300" width="406" height="306" class="illustration styles_illustrationTablet__1DWOa"><g id="_132_world_connection_flatline" data-name="#132_world_connection_flatline"><path d="M197.67,106.43a2.57,2.57,0,0,1-.47,2.86c-.15.15,0,.85.24,1a2.54,2.54,0,0,0,1.52.72c.85,0,1.78-.8,2.28.49,1.64-.13,2.88-1.78,4.73-.89.44.21,1.33-.5,2.06-.81a9,9,0,0,1,0-1.56c.42-2.25.81-2.39,2.58-1,.71-.62,1-1.17.12-2-.65-.6-.53-1.23.41-1.44a15.61,15.61,0,0,1,2.07-.24l2.63-.25,0-.61a4.38,4.38,0,0,0-1.47-.3,16.45,16.45,0,0,1-3,.63,7.3,7.3,0,0,1-3.16-1c-.53-.31.15-3.09.72-3.55,1-.83,2.08-1.64,3.46-2.73-.7-.23-1.34-.68-1.82-.55a6.69,6.69,0,0,0-2.29,1.29c-.59.47-.94,1.22-1.5,1.73s-1.4.85-1.93,1.42c-1,1.09-.88,1.85.29,2.69a1.18,1.18,0,0,1-.14,2.17,2.4,2.4,0,0,0-1.34,2.05c-.09.85-.1,2.09-1.62,1.77-1.88,2.43-1.82.07-2.31-.93a4.73,4.73,0,0,0-.28-.55c-.53-.86-.9-2.08-1.67-2.43-.51-.24-1.58.78-2.42,1.2a2,2,0,0,1-2.45-1.09,12.06,12.06,0,0,1-.75-2.63,2.3,2.3,0,0,1,.59-1.71,9.9,9.9,0,0,1,3.87-2.21c1.05-.29,1.93-1.44,2.74-2.34,1.17-1.31,2.22-2.73,3.2-3.94l-2.16.53a9.89,9.89,0,0,1,1.63-1.25,9.38,9.38,0,0,1,1.9-.43c.62-.38,1.68-1.57,2.48-1.42,1.41.28,2.46-.78,3.82-.47.63.14,1.45-.61,2.48-1.09l-.54,1.16a5.37,5.37,0,0,1,1.81-.59,22.22,22.22,0,0,1,3.08.65l-.36.57c2.22.51,4.43.93,6.58,1.54a21.27,21.27,0,0,1,3.55,1.51c.94.47,1,1.16,0,1.66-1.87,1-3.8.48-5.7.06a4.33,4.33,0,0,0-1.82-.23l1.72.93c0,2.06,1.27,3.12,3.29,2.52L223,96.55l.13-.32,3.53.57L226,95.48a22.79,22.79,0,0,1,2.14-.89,18.52,18.52,0,0,1,2.32-.35,3.65,3.65,0,0,1-.54-1.12,8.79,8.79,0,0,1,.12-1.89l2.64.57,0,.52-1.3.45c1,1.52,1.38,1.4,2.66.37a15.37,15.37,0,0,1,3.71-1.73,9,9,0,0,1,1.46-.32c1.06,1.69,2.58.06,4,.14.62,0,1.3-.89,1.83.24a13.07,13.07,0,0,0,1.61-.51l-2.82-2A51.62,51.62,0,0,1,249.48,90c1.57.48,3,1.55,4.77,1.45a3.73,3.73,0,0,1-1.92-3.29A11.27,11.27,0,0,1,254.28,86a4.77,4.77,0,0,1,2.31-.53,7,7,0,0,1,1.8.42l-.89,1.26.67,4.44.64.2L256,94.32c2,.46,3.67-.74,3.93-3.11.9,0,2.05-.46,2.13,1.15,1-.9.82-1.7-.47-1.76-.83,0-1.65,0-2.55,0-.1-1.07-.21-2.15-.33-3.41L260.54,86v1.57l1.59.23-1.2-1,1.89.27.15-.32-.92-.64.1-.35c1.2.37,2.4.75,3.61,1.1a9.69,9.69,0,0,0,1.41.25,1.32,1.32,0,0,0,.1-.39c-.42-.2-.85-.37-1.5-.64l-.44-1.37,6.17-.53-.91-1a17.56,17.56,0,0,1,9.12-1.68A13.69,13.69,0,0,0,283,81c.1,0,.18-.13.28-.14a5.21,5.21,0,0,0,2.7-1.11c1.13-.82,2.54-1.8,3.8.1.24.35,1,.33,1.5.47a33.26,33.26,0,0,1,5,.08c.6.1,1.05,1.17,1.59,1.82l-6.93,2.47,0,.29c.46,0,.93.08,1.39.08s1.15.14,1.49-.11c1.58-1.14,3.17-.46,4.78-.28.64.07,1.34-.37,2-.26a5.58,5.58,0,0,1,2.07,1,3.12,3.12,0,0,0,4.11-.8,1.47,1.47,0,0,1,1.14-.27c1.54.19,3.06.47,4.67.73-.19,1.78-.1,3.3,2.23,3.34l.62-1h7.41L322,86.1c1.85-.14,3.76-.72,5.39-.28s3.72.09,5.47,1.43c1.16.88,3.2.75,4.85.81s3.38-.3,4.57,1.47c.26.39,1.27.34,1.95.38a27.06,27.06,0,0,0,3.12,0c.77-.06,1.52-.3,2.28-.4a9.62,9.62,0,0,1,1.42,0l.29.5-.94.26.1.32,2.54.76c-.22-.86-.32-1.28-.49-2,2.77.34,5.56.23,8,1.11s5.19,1.21,6.65,3.73c.79-1.11,1.52-1,4.41.8-.94.78-2.48.83-2.77,2.27-1-.3-2-.59-3-.91-.51-.16-1-.39-1.51-.58a7.46,7.46,0,0,1-1.17-.45,3,3,0,0,1-.6-.7l-.25.91c0,.14-.07.29-.11.49l-2.75,1c.88.77,1.66,1.65,1.42,2.95-3.75-.67-6.24,1.44-9,3.19a2.21,2.21,0,0,0-3.14-.31,2.27,2.27,0,0,1-1.28.19c-2-.17-2.31,1.73-3.63,2.8l1.23.24c.1.82.19,1.55.29,2.33-1.37.1-1.82.73-1,1.95-.72.74-2.66.18-2,2.18-2.28-.34-1.52,2.52-3.33,3-.56-3.19-2.34-6.3.09-9.06,2.91-2,5.74-3.67,7.49-6.57l-.26-.36a4.23,4.23,0,0,0-.9.29c.08,1.07-.75,1.22-1.44,1.48s-1.68,1.9-2.08-.35a7.55,7.55,0,0,0-2.81.24,4.72,4.72,0,0,0-1.77,1.6c-.24.3-.17.84-.28,1.48l-3.53.49c.18-.28.32-.51.69-1.07-1.82.13-3.47.59-5,.28-3.47-.73-5.43,1.51-7.64,3.36-1.09.91-2.16,1.84-3.08,2.62a9.88,9.88,0,0,0,1.45,1.5,1.76,1.76,0,0,0,1.25.06c.51-.13,1.16-.73,1.43-.57.57.32,1.41,1.11,1.31,1.52-.54,2.42-.16,5.07-1.68,7.26-1.37,2-2.71,4-4.08,5.94a2.36,2.36,0,0,1-3.24.57c-.67,1-2.05,1.38-2.16,3-.05.7-1.38,1.3-1.61,2a35.94,35.94,0,0,1,1.5,4.3c.51,2.32-1.71,2.19-3.18,3.1.11-1.49.25-2.83.28-4.16,0-.35-.38-1-.53-1-1.84.21-.93-.88-.78-1.59a3,3,0,0,1,.28-.59c-1.34-.76-2.47-.7-3.42.71l-.46-.32.66-2.29c-1.42-.31-1.82,1.1-2.69,1.69-.23.15-.37.46-.6.59a4,4,0,0,1-.91.29l.65,1,.63.89h3.81l-3.44,3,2.4,5.86-1.14,1L306,144c-.75,1.47-1.49,2.94-2.25,4.4a16.47,16.47,0,0,1-1.8,3.28c-.92,1.07-1.59,2.49-3.41,2.66a9.56,9.56,0,0,0-3.34,1.38c-.51.27-.85.87-1.37,1.45l-.22-1.4a3.42,3.42,0,0,0-3.71,2.55c-.48,2.35,1.36,3.73,2.64,5.13l2.11-.53.24.35c-.41.53-.84,1-1.22,1.57a1.77,1.77,0,0,0-.44,1c.13,2.13.28,4.13-2.29,5.19-.71.29-1,1.55-1.87,2.26v-1.55l-4.31-5a2.46,2.46,0,0,0-.49.73,9.17,9.17,0,0,1-.29,1.79c-1,2.13.37,4,.77,5.86.16.79,1.41,1.29,1.88,2.09a10.56,10.56,0,0,1,.93,2.76,12.09,12.09,0,0,1,.45,3.56,11.61,11.61,0,0,1-2.45-2.33,14.14,14.14,0,0,1-.9-3.34,4.9,4.9,0,0,0-.74-2c-1.45-1.61-1.38-3.42-1.05-5.35.51-3-.91-5.69-1.32-8.72-1,.85-1.29,2.38-3,1.47,1.06-2.39-.31-4.19-1.6-6.08a8.44,8.44,0,0,1-.82-2.42c-1.16.24-2.3.43-3.4.72-.4.1-1,.38-1.06.66-.42,2.22-2.57,3.09-3.65,4.79-.7,1.1-1.9,1.87-2.64,2.95a4,4,0,0,0-.28,2.21,11.61,11.61,0,0,1-2.75,8.37,51,51,0,0,1-3.11-9.59c-.83-3.24-1.28-6.57-1.81-9.44l-1.17,1.43-2.29-2,1-.42-3.47-3.94c-1.88,0-4,.11-6.12,0s-2.22-.36-2.94-2.17a3.86,3.86,0,0,1-5.44-2.18,8.08,8.08,0,0,0-.37-.85c-1-1.9-1.27-1.93-2.67-.37l2.62,5.59.59-1.41c.18.78.27,1.13.33,1.48.1.53.19,1.08.28,1.62.86-.17,1.91.62,2.57-.68a13.87,13.87,0,0,1,1.72-2.22,9.27,9.27,0,0,0,.22,2,2.31,2.31,0,0,0,1,1.25c2.29,1.12,2.64,2.78.93,4.66a7.9,7.9,0,0,0-.73,1.14c-.23.38-.42.79-.68,1.15a10.79,10.79,0,0,1-3.57,2.88c-1.48.87-2.7,2.17-4.15,3.11a44.33,44.33,0,0,1-4.25,2.27c-.81.4-1.19.08-1.34-.8-.44-2.49-.41-5.1-1.92-7.3a19.77,19.77,0,0,1-1.47-2.29,20.09,20.09,0,0,1-.74-2.23c-.38-1-.78-2-1.22-3-.54-1.23-1.1-2.45-1.7-3.65-.35-.71-.78-1.39-1.08-1.92l-2.22.67-.15-.45,1.13-.88-2.31-2.42c.29-.18.84-.8,1.41-.81,1.49,0,1.94-.92,2.21-2.1.42-1.83.82-3.66,1.34-6l-2.51,1.16a.31.31,0,0,1-.15,0c-1-.24-2.45-1-2.89-.63-1.38,1.22-2.07-.19-2.86-.55s-1-1.32-1.45-2l.21-2.84c-1-.59-1-.55-2.13.49-.23.21-.86,0-1.53-.06a18.41,18.41,0,0,1,1.2,2,2,2,0,0,1,.14,1.41,13.45,13.45,0,0,1-1.21,2.11c-1-2.37-3.18-4.19-3.19-7.19,0-.65-.94-1.49-1.64-1.92-1.14-.68-2.41-1.12-2.8-2.61,0-.15-.55-.14-.72-.32a4.44,4.44,0,0,1-.5-.95c-1.48.4-1.68,1.1-.6,2.42.44.53.71,1.19,1.13,1.74a2.19,2.19,0,0,0,1,.89c1.42.31,2.06,1.61,3.15,2.32.09,0,.06.27.12.56l-1.85-.79.54,1.87-1.13,1.57c.69-2.61-1.22-3.47-2.83-4.64a16.8,16.8,0,0,1-2.46-2.65c-.46-.53-.88-1.1-1.29-1.63a13.58,13.58,0,0,0-1.75,1.19,1.86,1.86,0,0,1-2.29.41c-.88-.35-1.84-.44-1.75,1.15,0,.51-.69,1.09-1.12,1.58-.64.74-1.41,1.38-2,2.17-.22.31,0,.91,0,1.74-.75,2.15-3.14,2.5-5.62,3.08l-1-1.28-1.63.19c-1.64-2.7.64-5.57-.72-8.34,2.39-1.44,4.86-.3,7.34-.49.18-1.38,1.14-2.82,0-4.17a28.42,28.42,0,0,1-2.76-3l2.95.13-.17-1.39a2.45,2.45,0,0,0,3.31-1.29c.16-.31.57-.48.84-.74.77-.75,1.53-1.51,2.59-2.57l3.33-1.32A7.44,7.44,0,0,0,196,110C195.45,107.66,195.43,107.66,197.67,106.43Z" fill="#68e1fd"></path><path d="M68.25,125.26H70a5.23,5.23,0,0,0-3-2.77,8.6,8.6,0,0,1-4.24-4.91c-.22-.54-1-.82-1.51-1.16l-.38,1.07c-.6-1.36-2.31-1.93-1-3.59.08-.09-.85-1.38-1.16-1.32-1.49.28-2.49-.52-3.64-1.14a8.4,8.4,0,0,0-2.36-.78c-1.83-.38-3.68-.68-5.63-1l.17.85-3.92,1,.29-2-2.3,1.93c.46.9-3.28,4.06-5.63,4.7l.8.75-.08.48c-1.8-1.6-3.29,0-5-.06l2.5-1.33a17.32,17.32,0,0,0,2.66-1.42,16.67,16.67,0,0,0,2.06-2.34H34l-.32-1.83c-2.46,1.75-2.3-1.18-3.56-1.67.66-2.48,2.93-2.12,4.72-2.73l-.3-1.33c-2.64.24-3.26,1-6.12-1.15.61-.21,1.18-.37,1.72-.59s1.07-.54,1.59-.8c1,1.2,1.74,1.24,3.09.28l-5.74-2.27c.86-.34,1.39-.51,1.88-.74.66-.31,1.28-.72,2-1,1.29-.52,2.59-1,3.92-1.46,2.18-.71,4.31-.18,6.47.26a45.43,45.43,0,0,0,5.21.62,29.85,29.85,0,0,1,7.88,1.5,7.58,7.58,0,0,0,1.79.25c-.06-2.06,1.55-.41,2.28-1a5.11,5.11,0,0,1,3-.63l-3.19,1.3.2.44,5-2.15L67,98.93,68.18,98l.62,1c.75-1.26,1.79-.84,2.88-.57,1.49.36,3,.55,4.53.84.47.09.94.25,1.62.45l-1,.75.07.37a22.79,22.79,0,0,1,3.58-.22,18.28,18.28,0,0,1,3.12.8l-.17-1.15c1.14,0,2.19-.07,3.23,0,1.93.14,3.84,1,5.79-.25.39-.24,1.4.54,2.3.91l1.75-1.38-2.62-2c-.23-1,.28-1.87,1.61-2,1.1-.1,2.47,1.6,2.32,2.69l1.67.3-.19,1.7,1.44-1.71,1.54,3.28,2.52-3.58,2.65.49v2.59l.34.4-2.52.55.83,1.31-2.89-1.59c.32,1.38-.37,1.68-1.26,1.57a11.11,11.11,0,0,0-2.54-.34l3.42,1c-1,.49-1.8.83-2.54,1.2a3.07,3.07,0,0,0-1,.64c-1.28,1.62-3.93,2.23-3.78,4.91,0,.4.35,1,.64,1.11,1.27.3,1.38,1.16,1.3,2.3,1.67-.92,2.88,0,4.27.77a42.92,42.92,0,0,0,5.09,1.94c.12,1.06-.08,2.74,1.48,3.71.31.2.85.58.93.5.41-.38,1-.91,1-1.36a13.34,13.34,0,0,0-.66-2.65c.89-.77,2.31-1.41,2.52-2.33s-.84-2.07-1.41-3.28c1.44-1-.06-2.58.16-4.17,2.82-.77,5.26.66,7.73,2a2,2,0,0,0,1.53,2.87c1.87.47,2.08-1.47,2.84-2.55.8,1.12,1.64,2.12,2.29,3.24.38.66.22,1.76.71,2.21a19.85,19.85,0,0,0,3.28,2l-.88.58a6.89,6.89,0,0,1,2,.49,2,2,0,0,1,.81,1.4,1.48,1.48,0,0,1-.77,1.08c-2.29,1.11-4.41,2.55-7.27,1.9-1.83-.42-3,1.24-4.32,2.44a21.6,21.6,0,0,1,2.29-.94,4.84,4.84,0,0,1,1.78-.14c.15,0,.42.79.32.89-1.15,1.09-.75,2,.32,2.74,1.43,1,2,.92,2.92-.52a.67.67,0,0,1,.57-.34l-.37,1.25.66-.38.24.41-5.34,2.85-.38-.09,1.1-2.36a47.82,47.82,0,0,0-5,2.61c-.4.27-.21,1.44-.29,2.19l.43.2a8.07,8.07,0,0,1-1.5.33c-1.3,0-2,.37-2.19,1.89-.08.87-.87,1.66-1.43,2.64l-.58-2.24a13.25,13.25,0,0,0,0,2.62c.6,2.69.47,3.1-1.86,4.43-1.39.8-3,3.22-2.75,4.25.35,1.44.85,2.85,1.12,4.3a9.59,9.59,0,0,1-.12,2.32l-.76.1-2.39-6.14-1.3.57c-1.13-2-2.82-.72-4.31-.79l.64,1.43c-1.35-.28-2.42-.45-3.46-.73-.81-.21-1.41-.22-1.91.61-.24.42-.8.64-1.17,1s-.89.67-.9,1c-.07,2.57-.11,5.16,0,7.74a4.49,4.49,0,0,0,.94,2.39c.51.63,1.46,1.46,2.08,1.36,1.15-.2,2.79.11,3.15-1.84s1-2.3,3.35-2l-1.63,7c.76,0,1.52,0,2.26-.12,2-.25,2.77.66,2.49,2.57-.34,2.38-.73,4.86,2,6.32,2.23-1.09,2.21-1.08,4,.79a8.72,8.72,0,0,0,1.59,1c.53-3.09,3.14-3.88,5.4-5.28-.2,1.27-1,2.47-.19,3.68l1.13-3.11c1.22.58,2.24,1.09,3.28,1.55a5.31,5.31,0,0,0,3.41,0c1.08-.23,1.66,1,2.46,1.51a5.68,5.68,0,0,1,.75.8,10.4,10.4,0,0,0,1.52,1.52,5.34,5.34,0,0,0,2.37,1.15c2.91.16,4.29.94,5,3.73s2.55,3.74,4.88,4.28c1,.23,1.49.54,1.3,1.5,2.33,0,4.72-.46,6.38,1.78a1,1,0,0,0,.6.45,2.63,2.63,0,0,1,2.47,2.93c-.07,1.22-1.09,2.43-1.82,3.56s-1.5,1.89-2.24,2.85a1.26,1.26,0,0,0-.12.6,46.84,46.84,0,0,1-.64,5.56,16.58,16.58,0,0,1-1.74,3.76,1.68,1.68,0,0,1-.86.54c-1.44.54-2.93,1-4.33,1.6a3.11,3.11,0,0,0-1.77,3c-.1,1.3-1,2.55-1.52,3.82-.21.46-.46.91-.78,1.55l-.26-1.47c-1.52,3-2.73,6.33-7,3.46.54,1,1,1.59,1.27,2.26a1.83,1.83,0,0,1-1.29,2.74c-1.12.31-2.29.45-3.46.67.14,2.15-.34,2.53-2.85,1.79,1.14,2.78-.33,4.42-2.58,5.69a8.08,8.08,0,0,0,1,.88c1.23.64,1.22.84.12,1.79-.77.66-1.85,1.37-2,2.21a4.8,4.8,0,0,0,.78,3.19c.46.72,1.56,1,2.57,1.65-1.63.16-3.29.71-4.73.36a8.93,8.93,0,0,1-4.17-2.48c-.75-.78-.83-2.26-1-3.46s-.38-2.42,1.15-3.1l-1.13-.14,1.32-3.35.31.06.24,1.36.2,0,.61-3.48c-1.45-.17-1.45-1-.94-2.05.09-.18.36-.4.31-.5-1-2.2,1-3.7,1.27-5.59s.38-3.66.62-5.49c.32-2.37.75-4.72,1-7.09a11.63,11.63,0,0,0,.09-4.11,3.91,3.91,0,0,0-2.12-2.38c-3-1.07-3.86-3.81-5-6.22-.94-1.91-1.39-4-3.08-5.56a1.7,1.7,0,0,1,.1-2.51,5.72,5.72,0,0,0,.87-1.12c-1.11-.37-1.4-1.12-.88-2.05a25.39,25.39,0,0,1,2.35-3.61c1.37-1.67,1.29-3-.26-4.31a7.77,7.77,0,0,1-1.3-2.17c-.2-.36-.38-.73-.57-1.1l-.46,0-.88,2.17c-.12-.1-.48-.37-.84-.62a3,3,0,0,0-.92-.55c-.66-.15-1.34-.17-1.3-1.11a.16.16,0,0,0-.09-.12c-1.53-.41-1.69-1.79-2.19-3a4.22,4.22,0,0,0-3.17-2.53,5.43,5.43,0,0,1-3.11-2.32c-.65-.77-1.29-1.27-2.36-.52a1.8,1.8,0,0,1-1.53-.08c-2.25-1.29-4.47-2.64-6.64-4.07a1.88,1.88,0,0,1-.77-1.53c.36-1.64-.36-2.87-1.22-4.1-1.1-1.57-2.29-3.09-3.3-4.71-.88-1.4-1.51-2.94-2.38-4.35-.31-.49-1-.75-1.5-1.11l-.45.32c.49,1,1,2,1.47,3q1.32,2.6,2.66,5.19c.2.37.45.71.62,1.09s.36,1,.54,1.46l-.63.27a33.23,33.23,0,0,0-2.09-4,8.46,8.46,0,0,0-2-1.72c.06-.91.3-1.63.08-1.83-1.58-1.43-1.82-3.5-2.7-5.25-.22-.44-.57-1-1-1.11-2.34-.6-2.67-2.78-3.67-4.43a10.93,10.93,0,0,1-1.15-2.26,14.78,14.78,0,0,1-.46-6.18A33.79,33.79,0,0,0,68.25,125.26Z" fill="#68e1fd"></path><path d="M206.68,222.66a2.59,2.59,0,0,1-1.44-2.79,5.11,5.11,0,0,0-1.53-3.42,7.91,7.91,0,0,1-2-5.38c-.07-2.06-1.08-3.62-2-5.18-1.56-2.65-.51-5,.6-7.22.49-1,.95-1.75.2-2.76a1.47,1.47,0,0,1-.23-.88,8.18,8.18,0,0,0-2.18-6.22c-1.84-1.89-1.82-3.78-1.15-6a3.16,3.16,0,0,0-.41-2.2A2,2,0,0,0,195,180c-1.12.1-1.9.15-2.33-1.24s-1.88-.89-2.9-.67a30.85,30.85,0,0,0-3,1.07,7.26,7.26,0,0,1-1.47.23,19.66,19.66,0,0,0-3.86.37,2.21,2.21,0,0,1-2.38-.34,39.16,39.16,0,0,1-3.54-3,36.26,36.26,0,0,1-2.66-3.87c-.19-.27-.54-.44-.76-.7a2.15,2.15,0,0,1-.6-1,11.71,11.71,0,0,1,.39-4.69,4.79,4.79,0,0,0-.11-3.58c-1-1.53,0-2.42.52-3.47.75-1.5,1.63-2.93,2.5-4.35a1.82,1.82,0,0,1,.94-.66c1.5-.45,2.51-1.11,2.48-3a3.15,3.15,0,0,1,1.74-2.84,11.73,11.73,0,0,0,2.4-2.46c1.67,1.34,3.46.66,5.32-.1a14.7,14.7,0,0,1,3.64-1,51.44,51.44,0,0,1,5.27-.36,12.48,12.48,0,0,1,2,.28L197.53,148c.81,1.55,2.79.74,4.25,1.37.16.07.52,0,.53.09.34,1.8,2.17,1.37,3.2,2.13s1.39.16,1.48-.84a1.73,1.73,0,0,1,2.6-1.47,44.11,44.11,0,0,0,4.69,1.63,5,5,0,0,0,2.42-.19c1.07-.29,1.82-.4,2.26.94a52.3,52.3,0,0,0,2.16,5.34c.64,1.39,1.94,2.66,2.09,4.08.24,2.29,1.75,3.9,2.41,5.93a4.53,4.53,0,0,0,1.08,1.55c.81.84,1.78,1.53,2.51,2.43.4.48.36,1.3.69,1.87a1.34,1.34,0,0,0,1.11.53c2-.44,4-1,6.21-1.56a10.66,10.66,0,0,1-.58,2.93c-1.61,3.12-3.07,6.24-6,8.61-2.21,1.8-3.6,4.6-5.32,7-.16.22-.22.77-.09.87,1.06.88.39,2,.58,3s.77,1.74.92,2.65a11.4,11.4,0,0,1,.2,4.06c-.19.88-1.16,1.66-1.9,2.36-1.14,1.07-2.39,2-3.54,3.06-.17.16-.13.65-.05,1,.13.54.38,1.06.54,1.6a2.27,2.27,0,0,1-1.4,3.07c-.5.24-1,.54-1.17.65-.06,1,.15,1.84-.18,2.36-1.75,2.79-3.45,5.76-6.91,6.76a27.41,27.41,0,0,1-4.18.44A8.18,8.18,0,0,0,206.68,222.66Z" fill="#68e1fd"></path><path d="M133.45,99.45l-1.68-1.33,3.65-1.86V94.75l-3-1.14.08-.48,3.19.46-2.5-1.74c-1.49.87-1.95.54-2-1.7l1,0c-.67-1-1.23-1.89-1.9-2.73-2-2.45-4.43-3.55-7.59-2.74a4.22,4.22,0,0,1-1.76.26c-.63-.12-1.78.59-1.85-.93,0-.19-1.23-.32-1.88-.48l0-.52,3.09-.18-5.22-1.47a5.16,5.16,0,0,1,1.16-.63c1.52-.25,3.05-.39,4.56-.7.89-.17,2-.18,2-1.68h-2.2l-.09-.53,5.06-1.3.07-.93c.13,0,.25-.12.33-.09,1.45.53,2.65-.6,4-.62a2.87,2.87,0,0,1,2.16.9c.39.34,1.22-1.25,2.22-.35.19.18.68,0,1.16,0l-.59-1,5.29,1.33.13-.46a5.92,5.92,0,0,1-1.29-.3,1.11,1.11,0,0,1-.6-.73c0-.19.39-.57.64-.6,1.33-.13,2.68-.15,4-.26C144.1,73.32,145,73,146,73c3.71,0,7.42,0,11.11.31a26.85,26.85,0,0,1,5,1.28l-4,.67,0,.63c.37,0,.73,0,1.1,0,.65-.05,1.31-.14,2-.21L160.39,77a37.6,37.6,0,0,0,5-1,6.77,6.77,0,0,1,5.63.36c-3.2,1.53-6.68,2.51-8.73,5.58a6.75,6.75,0,0,1,2.2.17c.46.2.68.93,1.09,1.55l-2.21.14c-.15.91,2.19,1.51.41,2.72l1,1-2.28.33,1,1.15H160c-.69.93-.55,1.64.77,2.16A2.23,2.23,0,0,1,162.31,94l-3.08-1.29-1,1.27,3.88.4c-2.89,1.65-5.61,3.11-8.86,3.31-.54,0-1.16.67-1.53,1.18-1.33,1.85-2.89,3.11-5.36,2.88-.34,0-1.08.79-1.08,1.22,0,1.31-.21,2.37-1.47,3-.16.08-.23.36-.28.56-.28,1.13-.59,2.24-.78,3.38s-.84.84-1.52.55a25.8,25.8,0,0,1-2.67-1.2,4.14,4.14,0,0,1-1.46-1.42c-1.25-2.32-2.43-4.68-3.58-7.06A3.62,3.62,0,0,1,133.45,99.45Z" fill="#68e1fd"></path><path d="M326.52,200a7.19,7.19,0,0,1,1.39,1.34,4.42,4.42,0,0,1,.75,2.11c-.09,1.71,1.2,2.33,2.19,3.22a2.54,2.54,0,0,1,.51.47,5.52,5.52,0,0,0,1.71,2.18c1.21.81,1.92,2.53,2.54,4a7.28,7.28,0,0,1-.68,6.45,18.57,18.57,0,0,0-2.43,5.62c-.1.51-3.78,1.6-4.3,1.35-.27-.13-.52-.29-.79-.44a3.3,3.3,0,0,1-4.86-1.76,12.56,12.56,0,0,0-1.53-2.16l-.57.4.43-2.27-2.07,2.32c-.65-1.07-1-2.35-1.88-2.89a5.94,5.94,0,0,0-3.59-.77,14.42,14.42,0,0,0-4.92,1.36c-1.19.6-2.15,1.35-3.65,1.19a5,5,0,0,0-2.65.91,2.07,2.07,0,0,1-2.77-.31,1.66,1.66,0,0,1-.25-1.13c0-.68.41-1.41.26-2a37,37,0,0,0-1.35-3.87c-.24-.67-.72-1.31,0-2,.11-.11-.22-.6-.26-.93-.11-1.06-.62-2.45-.15-3.13.64-.91,2.06-1.25,3.13-1.87,1.56-.9,4-.22,4.75-2.57.11-.33.09-.71.22-1a5.37,5.37,0,0,1,.6-.84l.55.44a28.81,28.81,0,0,1,2.51-2.87c1.06-.93,1.7-.35,2.09,1.29a17.13,17.13,0,0,1,1.75-2.3,17.78,17.78,0,0,1,2-1.37,4.7,4.7,0,0,0,.66-.69l4,1c-.05-.14,0,0,0,0-1.56,2.33-1.56,2.33.78,4.08.43.32.88.61,1.33.9l1.67,1.07c.28-1.55.51-2.79.72-4s.41-2.56.61-3.83l.51-.05Z" fill="#68e1fd"></path><path d="M112.62,96.42c.15-1.76-1.51-1.69-2.31-2.55-.41.93-.66,1.92-1.8.88-.23-.21-.78-.06-1.17-.11-1.88-.21-3.76-.4-5.64-.67-.36-.06-.68-.41-1.11-.69l1.69-.54c-1.61-.29-3-.4-2.27-2.17a3.22,3.22,0,0,1,4-2.08c-.33.72-1,1.47-.9,2.16s.79,1.38,1.3,2c-.52-3.25-.24-3.81,2.08-4.13,1.22-.17,1.72.52,1.84,2.54a5.55,5.55,0,0,1,6.21.4,3.89,3.89,0,0,0,1.54.4c.15,0,.33,0,.45,0a21.3,21.3,0,0,1,3.06,1.64,13.34,13.34,0,0,1,1.92,2.18l-1.36.27-.18.36,6.18,3.33-2.37,2.95L120.68,100l-.57,1.47c1.16,1.09,3.33,1.87,2.85,4.58l-1.74-.18.75,1.81c-2.17-.89-4.32-1-5.69-2.89a3.26,3.26,0,0,0-3.58-1.22,4.82,4.82,0,0,1-1.71-.28c.09-.48.17-1,.28-1.44a2.26,2.26,0,0,1,.33-.83,3.11,3.11,0,0,1,1-.91c.16-.08.54.33.82.51l-1,1.32,2.23-.23v-.38l-.74-.26c.37-1.14,2.56-1.26,1.8-3A2.77,2.77,0,0,0,112.62,96.42Z" fill="#68e1fd"></path><path d="M102.7,77.24c-1.4.83-2.71-.58-4.29-1.74a42.77,42.77,0,0,1,6.58-.66,19.66,19.66,0,0,0,5.89-1.06,16.34,16.34,0,0,1,4.43-.16c2.71.07,5.42.18,8.12.38a11.76,11.76,0,0,1,2.5.81c-.58.31-1.06.61-1.58.84q-3.57,1.51-7.16,3a7.73,7.73,0,0,1-1.58.45,2.81,2.81,0,0,0-2.54,2.46L109.67,83l1.47.86c-1.28.18-2.27,1.34-3.45.11-.12-.12-.58.06-.88.12a15,15,0,0,1-7-.3l2.38-.69-.29-.76,2.13.16.14-.36-1.85-.87c1.09-1.7,2.63-.26,4-.6l-3.32-2c.34-.3.38-.36.4-.35,2,.78,3.8-.41,5.92-.43C107.32,76.46,105.08,78.19,102.7,77.24Z" fill="#68e1fd"></path><path d="M74.87,94.22,79.13,94l.05-.29c-.88-.07-1.75-.17-2.63-.21s-1.74,0-2.6,0l0-.5,1.77-.65-2.45-.59c.84-2,2.58-2.22,4.51-2.49l-.11,1.06c.23,0,.43,0,.51-.06.8-.79,1.47-.5,2.22.14s1-1.18,1.78-.24a6.14,6.14,0,0,0,1.53,1.52l-.58-2.46h2.26a13.1,13.1,0,0,0,1.54,3.54c.72.87,2,1.26,2.94,2.16L88.43,95l.64,1.17a8.12,8.12,0,0,1-2.49,0c-1.92-.71-3.55.07-5.32.56-1,.26-2.37.79-3.09-.78-.09-.2-.61-.22-.94-.31l-2.45-.7Z" fill="#68e1fd"></path><path d="M330.49,191.77l-1.15.83,3.55,3.67c-1.44-.25-3-.49-3.95-2.15a1.53,1.53,0,0,0-2.86.1,1.28,1.28,0,0,1-2.11.5c-.93-1.09-2-1.05-3.57-.57l1.27-1.76a2.94,2.94,0,0,0-2.24-2.36,21.59,21.59,0,0,1-3.26-1c-.35-.14-.55-.67-.85-1.06l1.19-.53-2.94-1.4a10.67,10.67,0,0,1,1.88-.72,1.36,1.36,0,0,1,1.77,1.08,21.46,21.46,0,0,0,.72,2.09l.5.07a5,5,0,0,1,.72-1c.93-.78,1.7-1.51,3.13-.43,1.11.84,2.84.8,4.1,1.5A33.33,33.33,0,0,1,330.49,191.77Z" fill="#68e1fd"></path><path d="M293.17,182.59l1.45.48,6.21-5.86,1.85,1.86c-1.82,1.71-1.9,2.89-.21,4.64-1.33.53-2.41,2.89-2.36,5.4L294.22,188C294,186.31,292.4,184.8,293.17,182.59Z" fill="#68e1fd"></path><path d="M230.41,202.33c3.08.14,3.25-2.68,5-4a2.65,2.65,0,0,1,.47,3.47c-.13.17-.09.46-.15.68-.82,2.94-1.61,5.9-2.49,8.82a1.72,1.72,0,0,1-2.78.71c-.93-.79-1.08-3-.54-4.18a8.15,8.15,0,0,0,.51-2.71C230.48,204.25,230.41,203.32,230.41,202.33Z" fill="#68e1fd"></path><path d="M184.51,114.83l-1.27-.38a18.1,18.1,0,0,1,0-1.83,1,1,0,0,1,.39-.56c.77.32,1.23-.23,1.08-.73s-.85-.79-1.33-1.14c-.1-.08-.29,0-.55-.08l.19-1c-1.33-1.26-1.85-2.2-1.49-2.7.76-1.09,2.46-1.77,3.2-1.28,1.2.78,1.24,1.37.34,3l3.32,4.59a1.46,1.46,0,0,1,.82.37c.13.16-.23.71-.37,1.08s-.23.66-.51,1.41l-6.09,1Z" fill="#68e1fd"></path><path d="M289.84,191.18l-1.73-.14c-1.33-1.9-2.81-4-4.32-6.17s-2.88-4-4.46-6.23c3.17.36,4.37,2.87,6.35,4.3a11.87,11.87,0,0,1,3.19,3.95c.24.4.95.51,1.38.72l-.46,3.63Z" fill="#68e1fd"></path><path d="M243.37,88.7c-2.53.09-4.61-.12-6.23-1.7a37.22,37.22,0,0,0,3.68-3.47c1.29-1.59,3.13-1.89,4.84-2.35s3.75-.51,5.61-.81a22.23,22.23,0,0,0,2.54-.71l.27.58a5,5,0,0,1-1.34.75c-1.75.38-3.62.4-5.26,1a13.72,13.72,0,0,0-5.89,4c-.23.28,0,1.12.24,1.54S242.68,88.2,243.37,88.7Z" fill="#68e1fd"></path><path d="M162.44,104.37l-2.19-.63,2-1H160l-.21-.27,2-1.17-.17-.51,1.13,1.51,4.65-1.1.12-.51a10.84,10.84,0,0,1,2.2,2.12c.65,1.12-.7,1.52-1.29,2a7.57,7.57,0,0,1-2.64,1.25,3.86,3.86,0,0,1-1.82,0c-.91-.2-1.79-.54-2.7-.82Z" fill="#68e1fd"></path><path d="M318,137.61l-3.72.93c1.11-1.84,1.71-2.11,4.53-2.12.22-.4.48-.83.69-1.27s.32-.81.33-.82c.61-.05,1.31.06,1.4-.13.56-1.13,1-2.33,1.44-3.52.28-.75,0-1.9,1.43-1.85a3.51,3.51,0,0,1,0,3.95,4.92,4.92,0,0,0-.48,2.93c.18,1.62-1.27,1.62-2,1.81-1.26.33-2.3.67-2.7,2.13l-.47-.07Z" fill="#68e1fd"></path><path d="M68,87.24a23.6,23.6,0,0,1,8.33,1.27c-1.49.93-2.66,1.63-3.79,2.38s-2,1.38-2.74,1.93L67.2,91.1C67.45,90.07,69,89.12,68,87.24Z" fill="#68e1fd"></path><path d="M96.39,80.43l.82-.69-3.28-.64c.62-1.67,1.4-2.63,3-2.38a6.06,6.06,0,0,1,1.21.44,4.09,4.09,0,0,0,1.4.32c.65.66,1.18,1.63,2.23.74l1.43,1.23C101.53,81.71,99.48,82,96.39,80.43Z" fill="#68e1fd"></path><path d="M198.35,76.13l5,.43-.52-1.14,8.36,3.34-.06.55h-3c-.18-.42-.24-.89-.49-1.06a1.15,1.15,0,0,0-1,0c-.88.6-1.7,1.3-2.7,2.1l-2.38-.61,1-.52L201,79.08l-.06-.25,1.89-.68-.06-.39a6.52,6.52,0,0,1-2.42.32,7.44,7.44,0,0,1-2.15-1.44Z" fill="#68e1fd"></path><path d="M97.49,84.17l1.2-.32v.82c3.41,2.34,7.16,0,10.73,1.13-.68,1.54-1.75,1.7-3.12,1.32a6.57,6.57,0,0,0-1.45.09c-2.09,0-4.18,0-6.25-.2-.34,0-.73-.7-.9-1.15A7,7,0,0,1,97.49,84.17Z" fill="#68e1fd"></path><path d="M76.1,85.51a3.58,3.58,0,0,1-.45.09,3,3,0,0,1-.42,0c0-.13,0-.25,0-.3,1.49-1.93,3.13-.77,4.74-.21.69.24,1.36.51,2.4.9l-.9-1.86,1-.66c.14.12.3.19.34.3.34.83.57,1.75,1.84,1.06.17-.1.84.27.91.52s-.25.91-.48,1c-2.32.44-4.66.8-7,1.16-.09,0-.22-.18-.53-.45l2.34-.6,0-.36-5.21.43-.07-.23,1.57-.57Z" fill="#68e1fd"></path><path d="M348.21,234.71l6.44-5.59a3.46,3.46,0,0,1,.79.47c.21.19.46.72.38.81-.7.74-.73,2-2,2.29a1.32,1.32,0,0,0-.72.51C351.29,235.72,351.29,235.73,348.21,234.71Z" fill="#68e1fd"></path><path d="M305.16,186.91l1.16,2.5-1,.72-1.14-2.38c0,2.56,0,2.73-.88,3.29-.2-.93-.41-1.89-.63-2.84l-.3.08,1.46-4.9c1.52-.23,3.28,1.46,4.71-.72-.49,1.62-.67,1.73-2,1.65a5.9,5.9,0,0,0-2.1,0c-1.39.44-.5,1.18-.21,1.77l2.47-.83.15.34Z" fill="#68e1fd"></path><path d="M178,113.85v-2.41c.6-.56,1.12-1,1.56-1.48.81-.93,1.64-.28,2.33.05s.59.95-.12,1.38c-.11.07-.16.32-.17.49,0,.57.16,1.51-.1,1.65a15.41,15.41,0,0,1-3.21,1.18c-.19.05-.52-.4-.79-.62Z" fill="#68e1fd"></path><path d="M93.43,88.69l-1,.83,1.47.65c.45,1.58-1.12,1.54-1.8,2.16-.11.1-.83-.46-1.27-.71l-2.58-1.5.13-.46,2.24.39L89.4,88.8C90.85,87.73,92.4,87.66,93.43,88.69Z" fill="#68e1fd"></path><path d="M326.85,117.83l-1.28.07c.15,1.32.29,2.61.42,3.82h-1.27c.82-3.5-1.1-7.29.89-11.18C326.05,113.11,326.44,115.44,326.85,117.83Z" fill="#68e1fd"></path><path d="M289.79,191.24a18.19,18.19,0,0,0,2.68.69c1.45.16,2.93.17,4.39.23a1.59,1.59,0,0,1,1,.29l-.87.45,2.28.93,0,.34c-1.13-.07-2.29,0-3.41-.22a41.94,41.94,0,0,1-5.21-1.1,1.2,1.2,0,0,1-.78-1.67Z" fill="#68e1fd"></path><path d="M323.86,127.07l-.68,1.53c-.62-1.91-.34-2.53,1-2.57l.44-3.22c1.13.7,1.45,2.59,3.23,2l.3,1.35-2.48,1.43Z" fill="#68e1fd"></path><path d="M323.18,82.92a19.62,19.62,0,0,1-2.38-.25c-.25,0-.63-.58-.57-.8s.47-.55.77-.77a.76.76,0,0,1,.59-.12c1.74.66,3.5.06,5.25.13.33,0,.64.43,1,.66-.29.26-.54.72-.87.77C325.71,82.73,324.46,82.8,323.18,82.92Z" fill="#68e1fd"></path><path d="M360.15,225.8a6.84,6.84,0,0,1-.59,1.18c-.73,1-1.48,2-2.28,2.88a.23.23,0,0,1-.36-.27l-1.1-2.15c.26-.68.55-1.46,1-2.58,1-.46,1.74,2.41,3.31.41Z" fill="#68e1fd"></path><path d="M88.92,85l-.11-1,1.77.94-.43-1a8.22,8.22,0,0,1,2.09,0c.26.07.57.79.52,1.17-.08.53-.41,1.36-.75,1.43-.53.1-1.16-.36-1.76-.54-.4-.13-.82-.19-1.23-.3a6.58,6.58,0,0,1-1.28-.4,9,9,0,0,1-1.13-.85c.18-.21.47-.61.53-.58a9.69,9.69,0,0,1,1.27.85,1.37,1.37,0,0,1,.25.33Z" fill="#68e1fd"></path><path d="M105.65,161.47a3.71,3.71,0,0,1,4.74-1.56c1.84.92,3.63,2,5.67,3.07l-2.81.32c-.62-.73-1-1.49-1.6-1.79a10.11,10.11,0,0,0-3.57-1.16C107.37,160.28,106.58,161,105.65,161.47Z" fill="#68e1fd"></path><path d="M303.82,164.45c2.1.62,2.45,1.55,1.65,2.78s-.5,1.76,1,2.05a11.47,11.47,0,0,1,1.29.43l-.51,1.09c-1-.91-2.55-.71-3.45-2C302.65,167.19,304.85,166.15,303.82,164.45Z" fill="#68e1fd"></path><path d="M99.32,88.29a2,2,0,0,1-2.21,1.84c-.2,0-.56.08-.57.16-.18,1.24-1.06.79-1.31.32s-.52-1.73-.18-2.13,1.43-.57,2.2-.6A8.82,8.82,0,0,1,99.32,88.29Z" fill="#68e1fd"></path><path d="M308.83,177.33l.21,1.1-.42.26L307,176.53l-1.27.25-.19-.33,3.95-2.21.27,3.09Z" fill="#68e1fd"></path><path d="M282.12,75.15l-6.53,1.52c.07-.44,0-1,.22-1.14C277.75,74.27,279.81,73.67,282.12,75.15Z" fill="#68e1fd"></path><path d="M69.87,84.55A21.78,21.78,0,0,1,73,83a20.1,20.1,0,0,1,3.24-.53l.26.54a17.62,17.62,0,0,1-1.61,1.39c-.08.06-.53-.38-.81-.6C73,85.07,70.39,85.52,69.87,84.55Z" fill="#68e1fd"></path><path d="M115.76,164.57l2.32.21-1.18-1.35c2.22-.6,4.68.26,4.55,1.64C119.56,164.91,117.58,165.84,115.76,164.57Z" fill="#68e1fd"></path><path d="M109,105.91c-.83,0-1.56.3-1.86,0-.84-.72-1.37-.13-2.1.1a8.07,8.07,0,0,1-2.37,0c1.59-2.51,2-2.67,4-1.54l.41.23Z" fill="#68e1fd"></path><path d="M284.3,75.67c-.18.65-.3,1.06-.42,1.51-3.18.49-4,.38-5.66-1Z" fill="#68e1fd"></path><path d="M213.61,76.38a35,35,0,0,1-4.57.21,10.52,10.52,0,0,1-3.28-1.08h7.85Z" fill="#68e1fd"></path><path d="M91.41,82.05l-5.16-1,1.13-.5-1.7-.46,0-.5a20,20,0,0,1,2.06.26,8.57,8.57,0,0,1,2,.64,15.32,15.32,0,0,1,1.83,1.17Z" fill="#68e1fd"></path><path d="M289.49,78.11l-5.74.46-.23-.25c.93-.54,1.84-1.43,2.82-1.53s2.18.54,3.28.85Z" fill="#68e1fd"></path><path d="M265.25,174.05a17.84,17.84,0,0,1,1.56,2.79c.11.31-.49,1.15-.93,1.33-.84.33-1.14-.27-1.1-1.09s0-1.88,0-2.82Z" fill="#68e1fd"></path><path d="M329,232.5l-1.49-3.29a14.72,14.72,0,0,1,2.66.06,1.39,1.39,0,0,1,.52,1.24A10.72,10.72,0,0,1,329,232.5Z" fill="#68e1fd"></path><path d="M313.65,138.76c1.66,1.36,1.57,3-.23,4,0-.88.08-1.63.11-2.31l-.69-.4Z" fill="#68e1fd"></path><path d="M240.88,74.36l3.89-1.3.19.28c-.35.49-.63,1.33-1.07,1.42a14.74,14.74,0,0,1-3.12.07Z" fill="#68e1fd"></path><path d="M195.82,129.33l1-.41c.1.28.36.62.28.79-.36.75.44,2.16-1.3,2.24Z" fill="#68e1fd"></path><path d="M202.16,135.05l-2.54-1.53.09-.33h2.76Z" fill="#68e1fd"></path><path d="M108.27,88.38l3.81.73-.13.57C110.76,89.27,109.07,91,108.27,88.38Z" fill="#68e1fd"></path><path d="M92,80.24c1.25.24,2.1.38,2.93.58a.56.56,0,0,1,.21.5.85.85,0,0,1-.46.47C93.53,82.14,92.73,81.73,92,80.24Z" fill="#68e1fd"></path><path d="M305.63,157.24,304.39,161C303.35,159.3,303.62,158.32,305.63,157.24Z" fill="#68e1fd"></path><path d="M331.25,190.75a5.63,5.63,0,0,0,1.93-.05c.51-.21.86-.84,1.62-1.15a6.5,6.5,0,0,1-.83,1.37A1.69,1.69,0,0,1,331.25,190.75Z" fill="#68e1fd"></path><path d="M93.8,86.17l2.5-.84.23,1.58c-.52,0-1,0-1.55-.06a7,7,0,0,1-1.15-.36Z" fill="#68e1fd"></path><path d="M310.46,194l-3.89,2.65C307.38,194.58,308.43,193.86,310.46,194Z" fill="#68e1fd"></path><path d="M92.65,98.09l2.12,1.28-.07.31-3.42-.29Z" fill="#68e1fd"></path><path d="M93.61,83.28l3.12.28c-1.12,1.4-2.12.54-3.15.12Z" fill="#68e1fd"></path><path d="M78.31,82l3.13-.48C80.91,83,79.83,83.19,78.31,82Z" fill="#68e1fd"></path><path d="M317.34,138.12c.87,2-1.47,1.18-1.48,2.23C315.05,138.76,316.69,138.92,317.34,138.12Z" fill="#68e1fd"></path><path d="M314,188.74h-3c.14-.3.25-.85.4-.86C312.46,187.81,313.54,187.59,314,188.74Z" fill="#68e1fd"></path><path d="M245,74.6l2.4-.19.07.71-2.35.3Z" fill="#68e1fd"></path><path d="M121.46,177.42a.48.48,0,0,1-.38-.17l-1-1.12a.51.51,0,0,1,0-.71.51.51,0,0,1,.71.05l1,1.12a.5.5,0,0,1,0,.71A.52.52,0,0,1,121.46,177.42Z" fill="#231f20"></path><path d="M118.48,174.05a.51.51,0,0,1-.37-.17l-2-2.25a.48.48,0,0,1,0-.7.51.51,0,0,1,.71,0l2,2.25a.51.51,0,0,1,0,.71A.5.5,0,0,1,118.48,174.05Zm-4-4.49a.52.52,0,0,1-.38-.17l-2-2.25a.51.51,0,0,1,0-.71.49.49,0,0,1,.7,0l2,2.25a.48.48,0,0,1,0,.7A.48.48,0,0,1,114.52,169.56Zm-4-4.5a.51.51,0,0,1-.37-.17l-2-2.24A.5.5,0,1,1,109,162l2,2.25a.51.51,0,0,1,0,.71A.54.54,0,0,1,110.55,165.06Zm-4-4.49a.48.48,0,0,1-.37-.17l-2-2.25a.51.51,0,0,1,0-.71.49.49,0,0,1,.7.05l2,2.25a.49.49,0,0,1,0,.7A.46.46,0,0,1,106.59,160.57Zm-4-4.5a.48.48,0,0,1-.38-.17l-2-2.24a.51.51,0,0,1,0-.71.51.51,0,0,1,.71.05l2,2.24a.51.51,0,0,1,0,.71A.54.54,0,0,1,102.63,156.07Zm-4-4.49a.5.5,0,0,1-.37-.17l-2-2.25a.49.49,0,0,1,0-.7.48.48,0,0,1,.7,0l2,2.25a.49.49,0,0,1-.05.7A.46.46,0,0,1,98.66,151.58Zm-4-4.5a.48.48,0,0,1-.38-.17l-2-2.24a.51.51,0,0,1,0-.71.51.51,0,0,1,.71,0l2,2.24a.51.51,0,0,1,0,.71A.54.54,0,0,1,94.7,147.08Zm-4-4.49a.5.5,0,0,1-.37-.17l-2-2.25a.48.48,0,0,1,0-.7.5.5,0,0,1,.71,0l2,2.25a.49.49,0,0,1,0,.7A.46.46,0,0,1,90.73,142.59Zm-4-4.5a.51.51,0,0,1-.38-.16l-2-2.25a.51.51,0,0,1,0-.71.49.49,0,0,1,.7.05l2,2.24a.5.5,0,0,1,0,.71A.52.52,0,0,1,86.77,138.09Zm-4-4.49a.51.51,0,0,1-.37-.17l-2-2.25a.48.48,0,0,1,0-.7.5.5,0,0,1,.71,0l2,2.25a.51.51,0,0,1-.05.71A.5.5,0,0,1,82.8,133.6Zm-4-4.49a.52.52,0,0,1-.38-.17l-2-2.25a.51.51,0,0,1,0-.71.49.49,0,0,1,.7,0l2,2.25a.48.48,0,0,1,0,.7A.51.51,0,0,1,78.84,129.11Zm-4-4.5a.52.52,0,0,1-.38-.17l-2-2.25a.5.5,0,0,1,0-.7.51.51,0,0,1,.71,0l2,2.25a.51.51,0,0,1,0,.71A.54.54,0,0,1,74.88,124.61Zm-4-4.49a.48.48,0,0,1-.37-.17l-2-2.25a.51.51,0,0,1,0-.71.49.49,0,0,1,.7.05l2,2.25a.49.49,0,0,1-.05.7A.46.46,0,0,1,70.91,120.12Zm-4-4.5a.52.52,0,0,1-.38-.17l-2-2.24a.5.5,0,0,1,.75-.67l2,2.25a.51.51,0,0,1,0,.71A.54.54,0,0,1,67,115.62Zm-4-4.49a.5.5,0,0,1-.37-.17l-2-2.25a.48.48,0,0,1,0-.7.5.5,0,0,1,.71,0l2,2.25a.49.49,0,0,1,0,.7A.46.46,0,0,1,63,111.13Z" fill="#231f20"></path><path d="M59,106.63a.48.48,0,0,1-.38-.17l-1-1.12a.5.5,0,0,1-.11-.45.52.52,0,0,1,.31-.35l1.41-.52a.5.5,0,0,1,.35.93l-.73.27.51.58a.5.5,0,0,1,0,.71A.52.52,0,0,1,59,106.63Z" fill="#231f20"></path><path d="M62.21,104a.51.51,0,0,1-.47-.32A.52.52,0,0,1,62,103l2.78-1a.5.5,0,0,1,.35.94l-2.78,1A.57.57,0,0,1,62.21,104Zm5.56-2.06a.5.5,0,0,1-.17-1l2.78-1a.5.5,0,0,1,.35.93l-2.78,1A.57.57,0,0,1,67.77,101.89Zm5.57-2.07a.49.49,0,0,1-.47-.32.5.5,0,0,1,.29-.65l2.78-1a.52.52,0,0,1,.65.3.5.5,0,0,1-.3.64l-2.78,1ZM295.2,97.9h-.08l-2.93-.46a.49.49,0,0,1-.41-.57.51.51,0,0,1,.57-.42l2.93.46a.5.5,0,0,1-.08,1ZM78.9,97.76a.5.5,0,0,1-.47-.33.49.49,0,0,1,.29-.64l2.78-1a.5.5,0,1,1,.35.93l-2.78,1A.51.51,0,0,1,78.9,97.76ZM289.34,97h-.08l-2.93-.47a.49.49,0,0,1-.41-.57.49.49,0,0,1,.57-.41l2.93.46a.5.5,0,0,1-.08,1Zm-5.86-.92h-.08l-2.93-.46a.49.49,0,0,1-.41-.57.51.51,0,0,1,.57-.42l2.93.46a.5.5,0,0,1-.08,1Zm-199-.36a.5.5,0,0,1-.47-.32.51.51,0,0,1,.3-.65l2.78-1a.5.5,0,0,1,.64.3.51.51,0,0,1-.3.64l-2.78,1A.47.47,0,0,1,84.46,95.69Zm193.16-.57h-.08l-2.93-.47a.49.49,0,0,1-.41-.57.49.49,0,0,1,.57-.41l2.93.46a.5.5,0,0,1-.08,1Zm-5.86-.92h-.08l-2.93-.46a.49.49,0,0,1-.41-.57.51.51,0,0,1,.57-.42l2.93.46a.5.5,0,0,1,.41.58A.5.5,0,0,1,271.76,94.2ZM90,93.63a.52.52,0,0,1-.47-.33.5.5,0,0,1,.3-.64l2.78-1a.5.5,0,1,1,.35.93l-2.79,1A.47.47,0,0,1,90,93.63Zm175.88-.36h-.08l-2.93-.47a.49.49,0,0,1-.41-.57.49.49,0,0,1,.57-.41l2.93.46a.5.5,0,0,1-.08,1ZM260,92.35H260L257,91.88a.49.49,0,0,1-.41-.57.51.51,0,0,1,.57-.42l2.93.46a.5.5,0,0,1-.08,1ZM95.58,91.56a.51.51,0,0,1-.47-.32.52.52,0,0,1,.3-.65l2.78-1a.5.5,0,0,1,.35.94l-2.78,1A.57.57,0,0,1,95.58,91.56Zm158.6-.14h-.08L251.17,91a.49.49,0,0,1-.41-.57.49.49,0,0,1,.57-.41l2.93.46a.5.5,0,0,1-.08,1Zm-5.86-.92h-.08L245.31,90a.49.49,0,0,1-.41-.57.51.51,0,0,1,.57-.42l2.93.46a.5.5,0,0,1,.41.58A.5.5,0,0,1,248.32,90.5Zm-5.86-.93h-.08l-2.93-.47a.49.49,0,0,1-.41-.57.49.49,0,0,1,.57-.41l2.93.46a.5.5,0,0,1-.08,1ZM101.14,89.5a.52.52,0,0,1-.47-.33.5.5,0,0,1,.3-.64l2.78-1a.5.5,0,0,1,.64.3.49.49,0,0,1-.29.64l-2.78,1A.39.39,0,0,1,101.14,89.5Zm135.46-.85h-.08l-2.93-.46a.49.49,0,0,1-.41-.57.5.5,0,0,1,.57-.42l2.93.46a.5.5,0,0,1,.41.58A.5.5,0,0,1,236.6,88.65Zm-5.86-.93h-.08l-2.93-.47a.5.5,0,0,1,.16-1l2.93.46a.5.5,0,0,1-.08,1Zm-124-.29a.48.48,0,0,1-.47-.33.5.5,0,0,1,.29-.64l2.78-1a.5.5,0,0,1,.65.29.52.52,0,0,1-.3.65l-2.78,1Zm118.17-.63h-.08l-2.93-.46a.49.49,0,0,1-.41-.57.5.5,0,0,1,.57-.42l2.93.46a.5.5,0,0,1,.41.58A.5.5,0,0,1,224.88,86.8ZM219,85.87h-.08L216,85.4a.49.49,0,0,1-.41-.57.5.5,0,0,1,.57-.41l2.93.46a.5.5,0,0,1-.08,1Zm-106.75-.5a.5.5,0,0,1-.47-.33.49.49,0,0,1,.29-.64l2.78-1a.52.52,0,0,1,.65.3.5.5,0,0,1-.3.64l-2.78,1A.35.35,0,0,1,112.27,85.37ZM213.16,85h-.08l-2.93-.46a.49.49,0,0,1-.41-.57.5.5,0,0,1,.57-.42l2.93.46a.5.5,0,0,1,.41.58A.5.5,0,0,1,213.16,85ZM207.3,84h-.08l-2.93-.47a.5.5,0,0,1,.16-1l2.93.46a.5.5,0,0,1-.08,1Zm-89.47-.72a.49.49,0,0,1-.47-.33.5.5,0,0,1,.29-.64l2.79-1a.49.49,0,0,1,.64.29.52.52,0,0,1-.3.65l-2.78,1A.47.47,0,0,1,117.83,83.3Zm83.61-.2h-.08l-2.93-.46a.5.5,0,0,1,.16-1l2.93.46a.5.5,0,0,1,.41.58A.5.5,0,0,1,201.44,83.1Zm-5.86-.93h-.08l-2.93-.47a.5.5,0,1,1,.16-1l2.93.46a.5.5,0,0,1-.08,1Zm-5.86-.92h-.08l-2.93-.46a.5.5,0,0,1,.16-1l2.93.46a.5.5,0,0,1,.41.58A.5.5,0,0,1,189.72,81.25Zm-66.33,0a.51.51,0,0,1-.47-.32.5.5,0,0,1,.3-.64l2.78-1a.5.5,0,0,1,.64.3.5.5,0,0,1-.29.64l-2.79,1A.32.32,0,0,1,123.39,81.23Zm60.47-.91h-.08l-2.93-.47a.5.5,0,0,1,.16-1l2.93.46a.5.5,0,0,1-.08,1ZM178,79.4h-.08L175,78.93a.49.49,0,0,1-.41-.57.5.5,0,0,1,.57-.42l2.93.46a.5.5,0,0,1,.41.58A.5.5,0,0,1,178,79.4ZM129,79.17a.52.52,0,0,1-.47-.33.5.5,0,0,1,.3-.64l2.78-1a.49.49,0,0,1,.64.29.5.5,0,0,1-.29.65l-2.78,1A.57.57,0,0,1,129,79.17Zm43.19-.7h-.08L169.13,78a.5.5,0,0,1,.16-1l2.93.46a.5.5,0,0,1-.08,1Zm-5.86-.92h-.08l-2.93-.46a.49.49,0,0,1-.41-.57.5.5,0,0,1,.57-.42l2.93.46a.5.5,0,0,1,.41.57A.5.5,0,0,1,166.28,77.55Zm-31.77-.45a.51.51,0,0,1-.47-.32.5.5,0,0,1,.3-.64l2.78-1a.5.5,0,0,1,.64.3.49.49,0,0,1-.29.64l-2.78,1A.57.57,0,0,1,134.51,77.1Zm25.91-.48h-.08l-2.93-.47a.5.5,0,1,1,.16-1l2.93.46a.5.5,0,0,1-.08,1Zm-5.86-.92h-.08l-2.93-.46a.5.5,0,0,1,.16-1l2.93.46a.5.5,0,0,1,.41.57A.5.5,0,0,1,154.56,75.7ZM140.07,75a.5.5,0,0,1-.17-1l2.78-1a.49.49,0,0,1,.64.29A.5.5,0,0,1,143,74l-2.78,1A.57.57,0,0,1,140.07,75Zm8.63-.27h-.08l-2.93-.47a.5.5,0,0,1,.16-1l2.93.46a.5.5,0,0,1-.08,1Z" fill="#231f20"></path><path d="M299.64,100.09a.5.5,0,0,1-.5-.49l0-1.08-1.07-.17a.49.49,0,0,1-.41-.57.49.49,0,0,1,.57-.41l1.48.23a.49.49,0,0,1,.42.48l0,1.5a.49.49,0,0,1-.49.51Z" fill="#231f20"></path><path d="M301.53,196.27a.49.49,0,0,1-.5-.49l-.06-3a.49.49,0,0,1,.49-.51.47.47,0,0,1,.51.49l.06,3a.5.5,0,0,1-.49.51Zm-.12-6a.5.5,0,0,1-.5-.49l-.06-3a.5.5,0,0,1,.49-.51h0a.51.51,0,0,1,.5.5l.06,3a.51.51,0,0,1-.49.51Zm-.12-6a.51.51,0,0,1-.5-.49l-.06-3a.52.52,0,0,1,.49-.51.48.48,0,0,1,.51.49l.06,3a.5.5,0,0,1-.49.51Zm-.12-6a.51.51,0,0,1-.5-.49l-.06-3a.52.52,0,0,1,.49-.51.5.5,0,0,1,.51.49l.06,3a.5.5,0,0,1-.49.51Zm-.11-6a.49.49,0,0,1-.5-.49l-.06-3a.5.5,0,0,1,.49-.51.47.47,0,0,1,.51.49l.06,3a.52.52,0,0,1-.5.51Zm-.12-6a.5.5,0,0,1-.5-.49l-.06-3a.5.5,0,0,1,.49-.51.48.48,0,0,1,.51.49l.06,3a.52.52,0,0,1-.49.51Zm-.12-6a.51.51,0,0,1-.5-.5l-.06-3a.51.51,0,0,1,.49-.51h0a.5.5,0,0,1,.5.49l.06,3a.5.5,0,0,1-.49.51Zm-.12-6a.5.5,0,0,1-.5-.49l-.06-3a.5.5,0,0,1,.49-.51.48.48,0,0,1,.51.49l.06,3a.49.49,0,0,1-.49.51Zm-.12-6a.5.5,0,0,1-.5-.49l-.05-3a.49.49,0,0,1,.49-.51h0a.5.5,0,0,1,.5.49l.05,3a.49.49,0,0,1-.49.51Zm-.11-6a.49.49,0,0,1-.5-.49l-.06-3a.49.49,0,0,1,.49-.51.47.47,0,0,1,.51.49l.06,3a.5.5,0,0,1-.49.51Zm-.12-6a.5.5,0,0,1-.5-.49l-.06-3a.49.49,0,0,1,.49-.51.48.48,0,0,1,.51.49l.06,3a.5.5,0,0,1-.49.51Zm-.12-6a.51.51,0,0,1-.5-.49l-.06-3a.52.52,0,0,1,.49-.51.47.47,0,0,1,.51.49l.06,3a.5.5,0,0,1-.49.51Zm-.12-6a.51.51,0,0,1-.5-.49l-.06-3a.52.52,0,0,1,.49-.51.49.49,0,0,1,.51.49l.06,3a.5.5,0,0,1-.49.51Zm-.11-6a.49.49,0,0,1-.5-.49l-.06-3a.5.5,0,0,1,.49-.51h0a.51.51,0,0,1,.5.49l.06,3a.52.52,0,0,1-.49.51Zm-.12-6a.5.5,0,0,1-.5-.49l-.06-3a.5.5,0,0,1,1,0l.06,3a.52.52,0,0,1-.49.51Zm-.12-6a.51.51,0,0,1-.5-.49l-.06-3a.51.51,0,0,1,.49-.51h0a.5.5,0,0,1,.5.49l.06,3a.5.5,0,0,1-.49.51Z" fill="#231f20"></path><path d="M301.61,200.78a.44.44,0,0,1-.24-.07l-1.31-.72a.5.5,0,0,1-.19-.68.5.5,0,0,1,.68-.2l.55.31v-.63a.49.49,0,0,1,.49-.51h0a.5.5,0,0,1,.5.49l0,1.5a.48.48,0,0,1-.24.44A.59.59,0,0,1,301.61,200.78Z" fill="#231f20"></path><path d="M297.75,198.63a.5.5,0,0,1-.24-.06L295,197.15a.49.49,0,0,1-.19-.68.5.5,0,0,1,.68-.19l2.55,1.41a.52.52,0,0,1,.2.69A.52.52,0,0,1,297.75,198.63Zm-5.11-2.83a.5.5,0,0,1-.24-.06l-2.56-1.42a.49.49,0,0,1-.19-.68.51.51,0,0,1,.68-.2l2.55,1.42a.51.51,0,0,1,.2.68A.49.49,0,0,1,292.64,195.8ZM287.53,193a.44.44,0,0,1-.24-.07l-2.56-1.41a.51.51,0,0,1-.19-.68.5.5,0,0,1,.68-.2l2.55,1.42a.5.5,0,0,1,.2.68A.51.51,0,0,1,287.53,193Zm-5.11-2.84a.53.53,0,0,1-.24-.06l-2.55-1.42a.5.5,0,0,1-.2-.68.5.5,0,0,1,.68-.19l2.56,1.41a.51.51,0,0,1,.19.69A.5.5,0,0,1,282.42,190.13Zm-5.11-2.83a.53.53,0,0,1-.24-.06l-2.55-1.42a.51.51,0,0,1-.2-.68A.5.5,0,0,1,275,185l2.56,1.41a.5.5,0,0,1,.19.68A.49.49,0,0,1,277.31,187.3Zm-5.1-2.83a.45.45,0,0,1-.25-.07L269.41,183a.5.5,0,1,1,.48-.88l2.56,1.42a.49.49,0,0,1,.19.68A.51.51,0,0,1,272.21,184.47Zm-5.11-2.84a.57.57,0,0,1-.25-.06l-2.55-1.42a.49.49,0,0,1-.19-.68.5.5,0,0,1,.68-.19l2.55,1.42a.5.5,0,0,1,.2.68A.52.52,0,0,1,267.1,181.63ZM262,178.8a.5.5,0,0,1-.24-.06l-2.56-1.42a.5.5,0,1,1,.49-.87l2.55,1.41a.5.5,0,0,1-.24.94ZM256.88,176a.44.44,0,0,1-.24-.07l-2.56-1.41a.5.5,0,0,1,.49-.88l2.55,1.42a.5.5,0,0,1-.24.94Zm-5.11-2.84a.53.53,0,0,1-.24-.06L249,171.65a.5.5,0,1,1,.48-.87L252,172.2a.5.5,0,0,1-.25.93Zm-5.11-2.83a.53.53,0,0,1-.24-.06l-2.55-1.42a.51.51,0,0,1-.2-.68.5.5,0,0,1,.68-.19l2.56,1.41a.51.51,0,0,1,.19.68A.49.49,0,0,1,246.66,170.3Zm-5.11-2.83a.44.44,0,0,1-.24-.07L238.76,166a.5.5,0,1,1,.48-.88l2.56,1.42a.49.49,0,0,1,.19.68A.51.51,0,0,1,241.55,167.47Zm-5.1-2.84a.54.54,0,0,1-.25-.06l-2.55-1.42a.49.49,0,0,1-.19-.68.5.5,0,0,1,.68-.19l2.55,1.42a.5.5,0,0,1-.24.93Zm-5.11-2.83a.5.5,0,0,1-.24-.06l-2.56-1.42a.5.5,0,1,1,.49-.87l2.55,1.41a.5.5,0,0,1-.24.94ZM226.23,159a.42.42,0,0,1-.24-.07l-2.56-1.41a.5.5,0,0,1-.19-.68.51.51,0,0,1,.68-.2l2.55,1.42a.5.5,0,0,1-.24.94Zm-5.11-2.84a.53.53,0,0,1-.24-.06l-2.56-1.42a.5.5,0,1,1,.49-.87l2.55,1.42a.49.49,0,0,1-.24.93ZM216,153.3a.53.53,0,0,1-.24-.06l-2.55-1.42a.5.5,0,1,1,.48-.87l2.56,1.41a.51.51,0,0,1,.19.68A.49.49,0,0,1,216,153.3Z" fill="#231f20"></path><path d="M210.9,150.47a.44.44,0,0,1-.24-.07l-1.12-.62-1.23.39a.5.5,0,1,1-.3-1l1.43-.45a.51.51,0,0,1,.4,0l1.31.73a.49.49,0,0,1,.19.68A.51.51,0,0,1,210.9,150.47Z" fill="#231f20"></path><path d="M125.83,176.05a.5.5,0,0,1-.15-1l2.94-.92a.5.5,0,1,1,.3.95L126,176Zm5.88-1.85a.5.5,0,0,1-.15-1l2.94-.93a.5.5,0,0,1,.3,1l-2.94.92A.39.39,0,0,1,131.71,174.2Zm5.88-1.84a.51.51,0,0,1-.48-.35.51.51,0,0,1,.33-.63l2.94-.93a.5.5,0,0,1,.3,1l-2.94.92Zm5.88-1.85a.51.51,0,0,1-.48-.35.51.51,0,0,1,.33-.63l2.94-.92a.49.49,0,0,1,.63.32.5.5,0,0,1-.33.63l-2.94.93Zm5.88-1.85a.49.49,0,0,1-.47-.35.5.5,0,0,1,.32-.63l2.94-.92a.5.5,0,0,1,.63.33.49.49,0,0,1-.33.62l-2.94.93Zm5.88-1.85a.48.48,0,0,1-.47-.35.49.49,0,0,1,.32-.62l2.94-.93a.5.5,0,1,1,.3,1l-2.94.92A.39.39,0,0,1,155.23,166.81Zm5.88-1.84a.49.49,0,0,1-.47-.35A.5.5,0,0,1,161,164l2.95-.92a.49.49,0,0,1,.62.32.5.5,0,0,1-.32.63l-3,.92A.4.4,0,0,1,161.11,165Zm5.89-1.85a.5.5,0,0,1-.15-1l2.94-.92a.49.49,0,0,1,.62.33.49.49,0,0,1-.32.62l-2.94.93Zm5.88-1.85a.49.49,0,0,1-.48-.35.51.51,0,0,1,.33-.63l2.94-.92a.5.5,0,0,1,.3,1l-2.94.92Zm5.88-1.85a.5.5,0,0,1-.15-1l2.94-.93a.5.5,0,0,1,.3,1l-2.94.92A.39.39,0,0,1,178.76,159.42Zm5.88-1.84a.51.51,0,0,1-.48-.35.51.51,0,0,1,.33-.63l2.94-.92a.5.5,0,0,1,.63.32.51.51,0,0,1-.33.63l-2.94.92Zm5.88-1.85a.5.5,0,0,1-.15-1l2.94-.92a.51.51,0,0,1,.63.33.5.5,0,0,1-.33.62l-2.94.93Zm5.88-1.85a.5.5,0,0,1-.15-1l2.94-.93a.5.5,0,0,1,.3,1l-2.94.92A.39.39,0,0,1,196.4,153.88Zm5.88-1.84a.51.51,0,0,1-.48-.35.51.51,0,0,1,.33-.63l2.94-.92a.49.49,0,0,1,.63.32.51.51,0,0,1-.33.63l-2.94.92A.4.4,0,0,1,202.28,152Z" fill="#231f20"></path><path d="M121.46,177.42a.5.5,0,0,1-.15-1l1.43-.45a.5.5,0,0,1,.63.32.51.51,0,0,1-.33.63l-1.43.45A.39.39,0,0,1,121.46,177.42Z" fill="#231f20"></path><path d="M141,174.24a19.57,19.57,0,1,1-19.57-19.57A19.48,19.48,0,0,1,141,174.24Z" fill="#fff"></path><path d="M121.46,154.67a19.57,19.57,0,1,1-19.57,19.57,19.57,19.57,0,0,1,19.57-19.57m0-1a20.6,20.6,0,1,0,16.11,33.43,20.35,20.35,0,0,0,4.49-12.83,20.62,20.62,0,0,0-20.6-20.6Z" fill="#231f20"></path><path d="M127.85,182a23.33,23.33,0,0,0-2.4-.58l-.18-3.89a5.24,5.24,0,0,0,1.65-2.68,2.44,2.44,0,0,0,2.36-.69,4.06,4.06,0,0,0,1-2.57,1.52,1.52,0,0,0-1.29-1.81,8.81,8.81,0,0,0,.06-1c0-4.82-.32-8.73-7.62-8.73s-7.62,3.91-7.62,8.73c0,.36,0,.7,0,1a1.52,1.52,0,0,0-1.28,1.81,4,4,0,0,0,1,2.57,2.45,2.45,0,0,0,2.36.69,5.31,5.31,0,0,0,1.45,2.49l-.19,4.12c-.74.15-1.47.33-2.18.54a31.86,31.86,0,0,0-8.92,4.4,19.54,19.54,0,0,0,13.16,7.26c.7.07,1.42.11,2.15.11s1.44,0,2.15-.11a19.54,19.54,0,0,0,13.15-7.26A31.66,31.66,0,0,0,127.85,182Z" fill="#d1d3d4"></path><path d="M71.56,107.49A13.54,13.54,0,1,1,58,94,13.43,13.43,0,0,1,71.56,107.49Z" fill="#fff"></path><path d="M58,94a13.53,13.53,0,1,1-13.54,13.54A13.54,13.54,0,0,1,58,94m0-1a14.57,14.57,0,1,0,14.56,14.57A14.59,14.59,0,0,0,58,92.92Z" fill="#231f20"></path><path d="M62.45,112.88c-.54-.16-1.1-.3-1.66-.41l0-1.08c9.61-1.06,2.56-8.09,2.56-10,0-2.06-.23-3.73-5.27-3.73s-5.27,1.67-5.27,3.73c0,1.89-7,8.86,2.41,10l-.05,1.13c-.52.11-1,.23-1.51.38a22.06,22.06,0,0,0-6.17,3,13.52,13.52,0,0,0,9.1,5A14.56,14.56,0,0,0,58,121a14.72,14.72,0,0,0,1.49-.08,13.52,13.52,0,0,0,9.09-5A22.13,22.13,0,0,0,62.45,112.88Z" fill="#d1d3d4"></path><path d="M230.74,149.08a19.57,19.57,0,1,1-19.57-19.57A19.46,19.46,0,0,1,230.74,149.08Z" fill="#fff"></path><path d="M211.17,129.51a19.56,19.56,0,1,1-19.57,19.57,19.57,19.57,0,0,1,19.57-19.57m0-1a20.6,20.6,0,1,0,16.11,33.43,20.33,20.33,0,0,0,4.49-12.83,20.62,20.62,0,0,0-20.6-20.6Z" fill="#231f20"></path><path d="M217.56,156.87a23.33,23.33,0,0,0-2.4-.58L215,152.4a5.32,5.32,0,0,0,1.66-2.68A2.43,2.43,0,0,0,219,149a4,4,0,0,0,1-2.57,1.52,1.52,0,0,0-1.29-1.81,8.77,8.77,0,0,0,.06-1c0-4.83-.32-8.74-7.62-8.74s-7.62,3.91-7.62,8.74a8.77,8.77,0,0,0,.06,1,1.52,1.52,0,0,0-1.29,1.81,4,4,0,0,0,1,2.57,2.43,2.43,0,0,0,2.35.69,5.39,5.39,0,0,0,1.45,2.5l-.19,4.11c-.74.15-1.47.33-2.18.54a31.66,31.66,0,0,0-8.91,4.4A19.5,19.5,0,0,0,209,168.53a19.32,19.32,0,0,0,4.3,0,19.5,19.5,0,0,0,13.15-7.26A31.66,31.66,0,0,0,217.56,156.87Z" fill="#d1d3d4"></path><path d="M313.21,98.71a13.6,13.6,0,1,1-13.6-13.59A13.53,13.53,0,0,1,313.21,98.71Z" fill="#fff"></path><path d="M299.61,85.12A13.59,13.59,0,1,1,286,98.71a13.6,13.6,0,0,1,13.59-13.59m0-1a14.62,14.62,0,1,0,14.63,14.62,14.64,14.64,0,0,0-14.63-14.62Z" fill="#231f20"></path><path d="M304.05,104.13c-.54-.16-1.09-.3-1.66-.41l-.05-1.09c9.66-1.06,2.57-8.12,2.57-10,0-2.07-.23-3.75-5.3-3.75s-5.29,1.68-5.29,3.75c0,1.9-7,8.9,2.42,10l-.05,1.14c-.52.11-1,.23-1.52.38a22.07,22.07,0,0,0-6.19,3.05,13.61,13.61,0,0,0,9.14,5,14,14,0,0,0,3,0,13.61,13.61,0,0,0,9.14-5A22,22,0,0,0,304.05,104.13Z" fill="#d1d3d4"></path><path d="M163,74.55A19.57,19.57,0,1,1,143.43,55,19.46,19.46,0,0,1,163,74.55Z" fill="#fff"></path><path d="M143.43,55a19.58,19.58,0,1,1-19.57,19.57A19.58,19.58,0,0,1,143.43,55m0-1a20.6,20.6,0,1,0,16.11,33.44A20.36,20.36,0,0,0,164,74.55,20.62,20.62,0,0,0,143.43,54Z" fill="#231f20"></path><path d="M149.82,82.35c-.78-.23-1.58-.43-2.4-.59l-.07-1.57c13.9-1.52,3.7-11.69,3.7-14.44,0-3-.32-5.39-7.62-5.39s-7.62,2.41-7.62,5.39c0,2.74-10.1,12.81,3.48,14.42l-.07,1.64c-.74.15-1.47.33-2.18.54a31.86,31.86,0,0,0-8.92,4.4A19.57,19.57,0,0,0,141.28,94a19.32,19.32,0,0,0,4.3,0,19.5,19.5,0,0,0,13.15-7.26A31.92,31.92,0,0,0,149.82,82.35Z" fill="#d1d3d4"></path><path d="M321.18,197.59A19.57,19.57,0,1,1,301.61,178,19.45,19.45,0,0,1,321.18,197.59Z" fill="#fff"></path><path d="M301.61,178a19.57,19.57,0,1,1-19.56,19.57A19.57,19.57,0,0,1,301.61,178m0-1a20.6,20.6,0,1,0,16.12,33.43,20.36,20.36,0,0,0,4.48-12.83,20.62,20.62,0,0,0-20.6-20.6Z" fill="#231f20"></path><path d="M308,205.39a23.54,23.54,0,0,0-2.41-.59l-.07-1.57c13.91-1.53,3.7-11.69,3.7-14.44,0-3-.32-5.39-7.62-5.39s-7.62,2.41-7.62,5.39c0,2.73-10.1,12.81,3.49,14.41l-.08,1.65a19.83,19.83,0,0,0-2.18.54,31.79,31.79,0,0,0-8.91,4.39A19.52,19.52,0,0,0,299.46,217a19.41,19.41,0,0,0,4.31,0,19.52,19.52,0,0,0,13.15-7.26A31.79,31.79,0,0,0,308,205.39Z" fill="#d1d3d4"></path></g></svg>